<mxfile host="Electron" modified="2023-08-14T21:02:50.837Z" agent="Mozilla/5.0 (Macintosh; Intel Mac OS X 10_15_7) AppleWebKit/537.36 (KHTML, like Gecko) draw.io/21.6.8 Chrome/114.0.5735.289 Electron/25.5.0 Safari/537.36" etag="6W7fm8SbtxdM6rtekwqK" version="21.6.8" type="device">
  <diagram name="Page-1" id="929967ad-93f9-6ef4-fab6-5d389245f69c">
    <mxGraphModel dx="2872" dy="4099" grid="1" gridSize="10" guides="1" tooltips="1" connect="1" arrows="1" fold="1" page="0" pageScale="1.5" pageWidth="827" pageHeight="1169" background="none" math="0" shadow="0">
      <root>
        <mxCell id="0" style=";html=1;" />
        <mxCell id="1" style=";html=1;" parent="0" />
        <mxCell id="1672d66443f91eb5-23" value="&lt;font style=&quot;font-size: 14px;&quot;&gt;&lt;br&gt;&lt;i&gt;EOG_meg_qc()&lt;/i&gt;&lt;br&gt;&lt;/font&gt;" style="text;strokeColor=none;fillColor=none;html=1;fontSize=28;fontStyle=1;verticalAlign=middle;align=center;" parent="1" vertex="1">
          <mxGeometry x="-1200" y="-2830" width="1110" height="40" as="geometry" />
        </mxCell>
        <mxCell id="qlgW9oU40mQZMEhXMN03-3" style="edgeStyle=orthogonalEdgeStyle;rounded=0;orthogonalLoop=1;jettySize=auto;html=1;entryX=0;entryY=0.5;entryDx=0;entryDy=0;" parent="1" source="q_XP9tdPbFsaZTS1878Z-1" target="q_XP9tdPbFsaZTS1878Z-9" edge="1">
          <mxGeometry relative="1" as="geometry">
            <Array as="points">
              <mxPoint x="-910" y="-2600" />
            </Array>
          </mxGeometry>
        </mxCell>
        <mxCell id="q_XP9tdPbFsaZTS1878Z-1" value="Input:&lt;br style=&quot;border-color: var(--border-color);&quot;&gt;Raw data,&lt;br&gt;Config parameters" style="rounded=0;whiteSpace=wrap;html=1;" parent="1" vertex="1">
          <mxGeometry x="-970" y="-2700" width="120" height="60" as="geometry" />
        </mxCell>
        <mxCell id="q_XP9tdPbFsaZTS1878Z-12" value="" style="edgeStyle=orthogonalEdgeStyle;rounded=0;orthogonalLoop=1;jettySize=auto;html=1;" parent="1" source="q_XP9tdPbFsaZTS1878Z-2" target="q_XP9tdPbFsaZTS1878Z-8" edge="1">
          <mxGeometry relative="1" as="geometry" />
        </mxCell>
        <mxCell id="q_XP9tdPbFsaZTS1878Z-2" value="" style="ellipse;fillColor=strokeColor;" parent="1" vertex="1">
          <mxGeometry x="-660" y="-2740" width="30" height="30" as="geometry" />
        </mxCell>
        <mxCell id="q_XP9tdPbFsaZTS1878Z-7" value="" style="group;flipV=1;" parent="1" vertex="1" connectable="0">
          <mxGeometry x="-775" y="-2645" width="250" height="90" as="geometry" />
        </mxCell>
        <mxCell id="q_XP9tdPbFsaZTS1878Z-8" value="Pick EOG channels&lt;br&gt;&lt;br&gt;&lt;b&gt;&lt;i&gt;mne.pick_types(eog=True)&lt;/i&gt;&lt;/b&gt;" style="html=1;align=center;verticalAlign=middle;rounded=1;absoluteArcSize=1;arcSize=25;dashed=0;fontFamily=Helvetica;fontSize=12;whiteSpace=wrap;container=0;noLabel=0;imageAlign=center;" parent="q_XP9tdPbFsaZTS1878Z-7" vertex="1">
          <mxGeometry x="10" width="240" height="80" as="geometry" />
        </mxCell>
        <mxCell id="q_XP9tdPbFsaZTS1878Z-9" value="pinIn 2" style="fontStyle=0;labelPosition=left;verticalLabelPosition=middle;align=right;verticalAlign=middle;spacingLeft=2;fontFamily=Helvetica;fontSize=12;flipH=0;resizable=0;container=0;noLabel=1;" parent="q_XP9tdPbFsaZTS1878Z-7" vertex="1">
          <mxGeometry y="25" width="10" height="30" as="geometry" />
        </mxCell>
        <mxCell id="q_XP9tdPbFsaZTS1878Z-10" value="pinIn 1" style="fontStyle=0;labelPosition=center;verticalLabelPosition=top;align=center;verticalAlign=bottom;spacingLeft=2;fontFamily=Helvetica;fontSize=12;resizable=0;container=0;noLabel=1;" parent="q_XP9tdPbFsaZTS1878Z-7" vertex="1">
          <mxGeometry x="115" y="80" width="30" height="10" as="geometry" />
        </mxCell>
        <mxCell id="q_XP9tdPbFsaZTS1878Z-124" value="" style="edgeStyle=orthogonalEdgeStyle;rounded=0;orthogonalLoop=1;jettySize=auto;html=1;" parent="1" source="q_XP9tdPbFsaZTS1878Z-117" target="q_XP9tdPbFsaZTS1878Z-123" edge="1">
          <mxGeometry relative="1" as="geometry" />
        </mxCell>
        <mxCell id="q_XP9tdPbFsaZTS1878Z-125" value="True" style="edgeLabel;html=1;align=center;verticalAlign=middle;resizable=0;points=[];" parent="q_XP9tdPbFsaZTS1878Z-124" vertex="1" connectable="0">
          <mxGeometry x="-0.1278" relative="1" as="geometry">
            <mxPoint as="offset" />
          </mxGeometry>
        </mxCell>
        <mxCell id="jzh1gqENJoQ-7TW8aTZ5-4" value="" style="edgeStyle=orthogonalEdgeStyle;rounded=0;jumpStyle=arc;orthogonalLoop=1;jettySize=auto;html=1;" parent="1" source="q_XP9tdPbFsaZTS1878Z-117" target="jzh1gqENJoQ-7TW8aTZ5-3" edge="1">
          <mxGeometry relative="1" as="geometry" />
        </mxCell>
        <mxCell id="jzh1gqENJoQ-7TW8aTZ5-5" value="False" style="edgeLabel;html=1;align=center;verticalAlign=middle;resizable=0;points=[];" parent="jzh1gqENJoQ-7TW8aTZ5-4" vertex="1" connectable="0">
          <mxGeometry x="-0.0661" relative="1" as="geometry">
            <mxPoint as="offset" />
          </mxGeometry>
        </mxCell>
        <mxCell id="q_XP9tdPbFsaZTS1878Z-117" value="&lt;b style=&quot;border-color: var(--border-color);&quot;&gt;Mean overall epoch&lt;/b&gt;&amp;nbsp;has&lt;br style=&quot;border-color: var(--border-color);&quot;&gt;&lt;font style=&quot;border-color: var(--border-color);&quot;&gt;expected&lt;/font&gt;&amp;nbsp;&lt;font style=&quot;border-color: var(--border-color);&quot;&gt;shape (prominent peak at specific time point)?&lt;/font&gt;" style="rhombus;html=1;fontSize=12;whiteSpace=wrap;" parent="1" vertex="1">
          <mxGeometry x="-1137" y="-614" width="200" height="117.5" as="geometry" />
        </mxCell>
        <mxCell id="q_XP9tdPbFsaZTS1878Z-118" style="edgeStyle=orthogonalEdgeStyle;rounded=0;orthogonalLoop=1;jettySize=auto;html=1;entryX=0;entryY=0.5;entryDx=0;entryDy=0;exitX=0.25;exitY=1;exitDx=0;exitDy=0;jumpStyle=arc;" parent="1" source="q_XP9tdPbFsaZTS1878Z-78" target="q_XP9tdPbFsaZTS1878Z-117" edge="1">
          <mxGeometry relative="1" as="geometry">
            <mxPoint x="-988" y="-645" as="sourcePoint" />
            <Array as="points">
              <mxPoint x="-1042" y="-764" />
              <mxPoint x="-1200" y="-764" />
              <mxPoint x="-1200" y="-555" />
            </Array>
            <mxPoint x="-1120" y="-425" as="targetPoint" />
          </mxGeometry>
        </mxCell>
        <mxCell id="q_XP9tdPbFsaZTS1878Z-120" value="" style="group" parent="1" vertex="1" connectable="0">
          <mxGeometry x="-1117" y="-314" width="397" height="290" as="geometry" />
        </mxCell>
        <mxCell id="q_XP9tdPbFsaZTS1878Z-121" value="&lt;div style=&quot;border-color: var(--border-color);&quot;&gt;Find the channels with the&amp;nbsp;peak&lt;span style=&quot;border-color: var(--border-color); background-color: initial;&quot;&gt;&amp;nbsp;of EOG epoch higher than the threshold.&amp;nbsp;&lt;/span&gt;&lt;/div&gt;&lt;div style=&quot;border-color: var(--border-color);&quot;&gt;&lt;span style=&quot;border-color: var(--border-color); background-color: initial;&quot;&gt;Threshold = peak magnitude of &lt;br&gt;&lt;b&gt;mean overall&amp;nbsp; epoch&lt;/b&gt;&amp;nbsp; * multiplier&lt;/span&gt;&lt;/div&gt;&lt;br style=&quot;border-color: var(--border-color);&quot;&gt;&lt;b&gt;&lt;i&gt;detect_channels_above_norm()&lt;/i&gt;&lt;/b&gt;" style="html=1;align=center;verticalAlign=middle;rounded=1;absoluteArcSize=1;arcSize=25;dashed=0;fontFamily=Helvetica;fontSize=12;whiteSpace=wrap;container=0;noLabel=0;imageAlign=center;" parent="q_XP9tdPbFsaZTS1878Z-120" vertex="1">
          <mxGeometry x="-43" y="-119" width="245.99999999999997" height="88" as="geometry" />
        </mxCell>
        <mxCell id="q_XP9tdPbFsaZTS1878Z-122" value="pinOut 2" style="fontStyle=0;labelPosition=center;verticalLabelPosition=bottom;align=center;verticalAlign=top;spacingLeft=2;fontFamily=Helvetica;fontSize=12;resizable=0;container=0;noLabel=1;" parent="q_XP9tdPbFsaZTS1878Z-120" vertex="1">
          <mxGeometry x="65.62499999999999" y="-30.999999999999986" width="30" height="10" as="geometry" />
        </mxCell>
        <mxCell id="q_XP9tdPbFsaZTS1878Z-123" value="pinIn 1" style="fontStyle=0;labelPosition=center;verticalLabelPosition=top;align=center;verticalAlign=bottom;spacingLeft=2;fontFamily=Helvetica;fontSize=12;resizable=0;container=0;noLabel=1;" parent="q_XP9tdPbFsaZTS1878Z-120" vertex="1">
          <mxGeometry x="65.62499999999999" y="-129" width="30" height="10" as="geometry" />
        </mxCell>
        <mxCell id="q_XP9tdPbFsaZTS1878Z-130" value="" style="edgeStyle=orthogonalEdgeStyle;rounded=0;orthogonalLoop=1;jettySize=auto;html=1;exitX=0.75;exitY=1;exitDx=0;exitDy=0;entryX=0.75;entryY=0;entryDx=0;entryDy=0;" parent="1" source="q_XP9tdPbFsaZTS1878Z-122" target="q_XP9tdPbFsaZTS1878Z-129" edge="1">
          <mxGeometry relative="1" as="geometry">
            <mxPoint x="-1033" y="-334" as="sourcePoint" />
            <mxPoint x="-1033" y="-294" as="targetPoint" />
            <Array as="points">
              <mxPoint x="-1029" y="-315" />
              <mxPoint x="-1028" y="-294" />
            </Array>
          </mxGeometry>
        </mxCell>
        <mxCell id="q_XP9tdPbFsaZTS1878Z-132" value="" style="group" parent="1" vertex="1" connectable="0">
          <mxGeometry x="-1156" y="-274" width="250" height="100" as="geometry" />
        </mxCell>
        <mxCell id="q_XP9tdPbFsaZTS1878Z-126" value="" style="group" parent="q_XP9tdPbFsaZTS1878Z-132" vertex="1" connectable="0">
          <mxGeometry width="240" height="100" as="geometry" />
        </mxCell>
        <mxCell id="q_XP9tdPbFsaZTS1878Z-127" value="&lt;p style=&quot;border-color: var(--border-color);&quot;&gt;Plot all&lt;b style=&quot;border-color: var(--border-color);&quot;&gt;&amp;nbsp;affected&lt;/b&gt;&amp;nbsp;channels + threshold&lt;br&gt;&lt;span style=&quot;background-color: initial;&quot;&gt;Plot&amp;nbsp;&lt;/span&gt;&lt;b style=&quot;background-color: initial; border-color: var(--border-color);&quot;&gt;not affected&amp;nbsp;&lt;/b&gt;&lt;span style=&quot;background-color: initial;&quot;&gt;channels + threshold&lt;/span&gt;&lt;/p&gt;&lt;b&gt;&lt;i&gt;plot_affected_channels()&lt;/i&gt;&lt;/b&gt;" style="html=1;align=center;verticalAlign=middle;rounded=1;absoluteArcSize=1;arcSize=25;dashed=0;fontFamily=Helvetica;fontSize=12;whiteSpace=wrap;container=0;noLabel=0;imageAlign=center;" parent="q_XP9tdPbFsaZTS1878Z-126" vertex="1">
          <mxGeometry y="10" width="240" height="80" as="geometry" />
        </mxCell>
        <mxCell id="q_XP9tdPbFsaZTS1878Z-129" value="pinIn 1" style="fontStyle=0;labelPosition=center;verticalLabelPosition=top;align=center;verticalAlign=bottom;spacingLeft=2;fontFamily=Helvetica;fontSize=12;resizable=0;container=0;noLabel=1;" parent="q_XP9tdPbFsaZTS1878Z-126" vertex="1">
          <mxGeometry x="105" width="30" height="10" as="geometry" />
        </mxCell>
        <mxCell id="q_XP9tdPbFsaZTS1878Z-131" value="pinOut 1" style="fontStyle=0;labelPosition=right;verticalLabelPosition=middle;align=left;verticalAlign=middle;spacingLeft=2;fontFamily=Helvetica;fontSize=12;resizable=0;container=0;noLabel=1;" parent="q_XP9tdPbFsaZTS1878Z-132" vertex="1">
          <mxGeometry x="240" y="35.00000000000023" width="10" height="30" as="geometry" />
        </mxCell>
        <mxCell id="q_XP9tdPbFsaZTS1878Z-162" value="3" style="ellipse;html=1;" parent="1" vertex="1">
          <mxGeometry x="-870" y="-239" width="30" height="30" as="geometry" />
        </mxCell>
        <mxCell id="q_XP9tdPbFsaZTS1878Z-163" value="" style="edgeStyle=orthogonalEdgeStyle;rounded=0;orthogonalLoop=1;jettySize=auto;html=1;" parent="1" source="q_XP9tdPbFsaZTS1878Z-131" target="q_XP9tdPbFsaZTS1878Z-162" edge="1">
          <mxGeometry relative="1" as="geometry" />
        </mxCell>
        <mxCell id="zNMVAwUSSOP5G73fzrCB-4" style="edgeStyle=orthogonalEdgeStyle;rounded=0;orthogonalLoop=1;jettySize=auto;html=1;exitX=0.25;exitY=1;exitDx=0;exitDy=0;" parent="1" source="q_XP9tdPbFsaZTS1878Z-122" edge="1">
          <mxGeometry relative="1" as="geometry">
            <mxPoint x="-610" y="-74" as="targetPoint" />
            <Array as="points">
              <mxPoint x="-1044" y="-324" />
              <mxPoint x="-1188" y="-324" />
              <mxPoint x="-1188" y="-104" />
              <mxPoint x="-610" y="-104" />
              <mxPoint x="-610" y="-74" />
            </Array>
          </mxGeometry>
        </mxCell>
        <mxCell id="zNMVAwUSSOP5G73fzrCB-7" value="" style="group" parent="1" vertex="1" connectable="0">
          <mxGeometry x="-728" y="-74" width="260" height="100" as="geometry" />
        </mxCell>
        <mxCell id="q_XP9tdPbFsaZTS1878Z-164" value="" style="group" parent="zNMVAwUSSOP5G73fzrCB-7" vertex="1" connectable="0">
          <mxGeometry x="10" width="250" height="100" as="geometry" />
        </mxCell>
        <mxCell id="q_XP9tdPbFsaZTS1878Z-165" value="" style="group" parent="q_XP9tdPbFsaZTS1878Z-164" vertex="1" connectable="0">
          <mxGeometry width="240" height="100" as="geometry" />
        </mxCell>
        <mxCell id="q_XP9tdPbFsaZTS1878Z-166" value="&lt;p style=&quot;border-color: var(--border-color);&quot;&gt;Save info about the level of EOG&amp;nbsp;contamination for each channel&amp;nbsp;&lt;br&gt;&lt;span style=&quot;background-color: initial;&quot;&gt;in dictionary&lt;/span&gt;&lt;/p&gt;&lt;i&gt;&lt;b&gt;make_simple_metric_eog()&lt;/b&gt;&lt;/i&gt;" style="html=1;align=center;verticalAlign=middle;rounded=1;absoluteArcSize=1;arcSize=25;dashed=0;fontFamily=Helvetica;fontSize=12;whiteSpace=wrap;container=0;noLabel=0;imageAlign=center;" parent="q_XP9tdPbFsaZTS1878Z-165" vertex="1">
          <mxGeometry y="10" width="240" height="80" as="geometry" />
        </mxCell>
        <mxCell id="ua0UwOFp4txvmiH0tm5q-78" value="pinIn 1" style="fontStyle=0;labelPosition=center;verticalLabelPosition=top;align=center;verticalAlign=bottom;spacingLeft=2;fontFamily=Helvetica;fontSize=12;resizable=0;container=0;noLabel=1;" parent="q_XP9tdPbFsaZTS1878Z-165" vertex="1">
          <mxGeometry x="102" width="30" height="10" as="geometry" />
        </mxCell>
        <mxCell id="q_XP9tdPbFsaZTS1878Z-168" value="pinOut 1" style="fontStyle=0;labelPosition=right;verticalLabelPosition=middle;align=left;verticalAlign=middle;spacingLeft=2;fontFamily=Helvetica;fontSize=12;resizable=0;container=0;noLabel=1;" parent="q_XP9tdPbFsaZTS1878Z-164" vertex="1">
          <mxGeometry x="240" y="35.00000000000023" width="10" height="30" as="geometry" />
        </mxCell>
        <mxCell id="zNMVAwUSSOP5G73fzrCB-8" value="Output:&lt;br style=&quot;border-color: var(--border-color);&quot;&gt;&lt;br style=&quot;border-color: var(--border-color);&quot;&gt;List of QC derivatives (figs)&lt;br style=&quot;border-color: var(--border-color);&quot;&gt;Dict as Simple metric&lt;br style=&quot;border-color: var(--border-color);&quot;&gt;Str about EOG contamination" style="html=1;dashed=0;fontFamily=Helvetica;fontSize=12;fontColor=rgb(0, 0, 0);align=center;strokeColor=rgb(0, 0, 0);fillColor=rgb(255, 255, 255);" parent="1" vertex="1">
          <mxGeometry x="-200" y="-64" width="198" height="81" as="geometry" />
        </mxCell>
        <mxCell id="zNMVAwUSSOP5G73fzrCB-9" style="edgeStyle=orthogonalEdgeStyle;rounded=0;orthogonalLoop=1;jettySize=auto;html=1;" parent="1" source="q_XP9tdPbFsaZTS1878Z-168" target="zNMVAwUSSOP5G73fzrCB-8" edge="1">
          <mxGeometry relative="1" as="geometry" />
        </mxCell>
        <mxCell id="q_XP9tdPbFsaZTS1878Z-43" value="" style="group" parent="1" vertex="1" connectable="0">
          <mxGeometry x="-1119" y="-1044" width="409" height="1020" as="geometry" />
        </mxCell>
        <mxCell id="q_XP9tdPbFsaZTS1878Z-44" value="For some channels correct the orientation of electrodes relative to the magnetic field:&amp;nbsp;&amp;nbsp;flip the average epoch to the positive side&lt;br&gt;for each channel&lt;br&gt;&lt;br&gt;&lt;b&gt;&lt;i&gt;flip_channels()&lt;/i&gt;&lt;/b&gt;&amp;nbsp;" style="html=1;align=center;verticalAlign=middle;rounded=1;absoluteArcSize=1;arcSize=25;dashed=0;fontFamily=Helvetica;fontSize=12;whiteSpace=wrap;container=0;noLabel=0;imageAlign=center;" parent="q_XP9tdPbFsaZTS1878Z-43" vertex="1">
          <mxGeometry x="-42" y="-118" width="248" height="96" as="geometry" />
        </mxCell>
        <mxCell id="q_XP9tdPbFsaZTS1878Z-45" value="pinOut 2" style="fontStyle=0;labelPosition=center;verticalLabelPosition=bottom;align=center;verticalAlign=top;spacingLeft=2;fontFamily=Helvetica;fontSize=12;resizable=0;container=0;noLabel=1;" parent="q_XP9tdPbFsaZTS1878Z-43" vertex="1">
          <mxGeometry x="66.49999999999999" y="-22" width="30" height="10" as="geometry" />
        </mxCell>
        <mxCell id="q_XP9tdPbFsaZTS1878Z-46" value="pinIn 1" style="fontStyle=0;labelPosition=center;verticalLabelPosition=top;align=center;verticalAlign=bottom;spacingLeft=2;fontFamily=Helvetica;fontSize=12;resizable=0;container=0;noLabel=1;" parent="q_XP9tdPbFsaZTS1878Z-43" vertex="1">
          <mxGeometry x="66.49999999999999" y="-128" width="30" height="10" as="geometry" />
        </mxCell>
        <mxCell id="ua0UwOFp4txvmiH0tm5q-93" value="1" style="ellipse;html=1;" parent="q_XP9tdPbFsaZTS1878Z-43" vertex="1">
          <mxGeometry x="379" y="376" width="30" height="30" as="geometry" />
        </mxCell>
        <mxCell id="q_XP9tdPbFsaZTS1878Z-31" value="Detect all ECG affected channels as channels with mean artifact higher than threshold:&lt;br&gt;&amp;nbsp;&lt;b&gt;mean over all channels artifact&lt;/b&gt; * miltiplier set by user.&lt;br&gt;&lt;br&gt;&lt;b&gt;&lt;i&gt;find_affected_over_mean()&lt;/i&gt;&lt;/b&gt;" style="html=1;align=center;verticalAlign=top;rounded=1;absoluteArcSize=1;arcSize=60;dashed=1;fontFamily=Helvetica;fontSize=12;whiteSpace=wrap;container=0;noLabel=0;imageAlign=center;horizontal=0;fillColor=none;dashPattern=12 12;" parent="q_XP9tdPbFsaZTS1878Z-43" vertex="1">
          <mxGeometry x="-191" y="20" width="490" height="870" as="geometry" />
        </mxCell>
        <mxCell id="q_XP9tdPbFsaZTS1878Z-57" value="" style="edgeStyle=orthogonalEdgeStyle;rounded=0;orthogonalLoop=1;jettySize=auto;html=1;" parent="1" source="q_XP9tdPbFsaZTS1878Z-45" target="q_XP9tdPbFsaZTS1878Z-55" edge="1">
          <mxGeometry relative="1" as="geometry" />
        </mxCell>
        <mxCell id="q_XP9tdPbFsaZTS1878Z-108" style="edgeStyle=orthogonalEdgeStyle;rounded=0;orthogonalLoop=1;jettySize=auto;html=1;entryX=0.5;entryY=0;entryDx=0;entryDy=0;" parent="1" edge="1">
          <mxGeometry relative="1" as="geometry">
            <mxPoint x="-1038.4444444444448" y="-775" as="sourcePoint" />
            <mxPoint x="-1037" y="-734" as="targetPoint" />
            <Array as="points">
              <mxPoint x="-1037" y="-775" />
            </Array>
          </mxGeometry>
        </mxCell>
        <mxCell id="q_XP9tdPbFsaZTS1878Z-109" style="edgeStyle=orthogonalEdgeStyle;rounded=0;orthogonalLoop=1;jettySize=auto;html=1;entryX=0;entryY=0.5;entryDx=0;entryDy=0;jumpStyle=arc;exitX=0.25;exitY=1;exitDx=0;exitDy=0;" parent="1" source="q_XP9tdPbFsaZTS1878Z-54" target="q_XP9tdPbFsaZTS1878Z-116" edge="1">
          <mxGeometry relative="1" as="geometry">
            <mxPoint x="-1072" y="-914" as="sourcePoint" />
            <Array as="points">
              <mxPoint x="-1046" y="-904" />
              <mxPoint x="-1180" y="-904" />
              <mxPoint x="-1180" y="-684" />
            </Array>
          </mxGeometry>
        </mxCell>
        <mxCell id="q_XP9tdPbFsaZTS1878Z-110" value="2" style="ellipse;html=1;" parent="1" vertex="1">
          <mxGeometry x="-877" y="-699" width="30" height="30" as="geometry" />
        </mxCell>
        <mxCell id="q_XP9tdPbFsaZTS1878Z-111" value="" style="endArrow=open;html=1;rounded=0;align=center;verticalAlign=top;endFill=0;labelBackgroundColor=none;endSize=6;exitX=1;exitY=0.5;exitDx=0;exitDy=0;" parent="1" source="q_XP9tdPbFsaZTS1878Z-115" target="q_XP9tdPbFsaZTS1878Z-110" edge="1">
          <mxGeometry relative="1" as="geometry">
            <mxPoint x="-890" y="-684" as="sourcePoint" />
          </mxGeometry>
        </mxCell>
        <mxCell id="q_XP9tdPbFsaZTS1878Z-116" value="pinOut 1" style="fontStyle=0;labelPosition=right;verticalLabelPosition=middle;align=left;verticalAlign=middle;spacingLeft=2;fontFamily=Helvetica;fontSize=12;resizable=0;container=0;noLabel=1;" parent="1" vertex="1">
          <mxGeometry x="-1165" y="-698.9999999999998" width="10" height="30" as="geometry" />
        </mxCell>
        <mxCell id="jzh1gqENJoQ-7TW8aTZ5-2" value="" style="edgeStyle=orthogonalEdgeStyle;rounded=0;jumpStyle=arc;orthogonalLoop=1;jettySize=auto;html=1;" parent="1" source="q_XP9tdPbFsaZTS1878Z-102" target="q_XP9tdPbFsaZTS1878Z-117" edge="1">
          <mxGeometry relative="1" as="geometry" />
        </mxCell>
        <mxCell id="Nbf0Tub4fTZDGGXtQ6uE-23" value="" style="edgeStyle=orthogonalEdgeStyle;rounded=0;orthogonalLoop=1;jettySize=auto;html=1;fontFamily=Helvetica;fontColor=#000000;" parent="1" source="jzh1gqENJoQ-7TW8aTZ5-6" target="zNMVAwUSSOP5G73fzrCB-8" edge="1">
          <mxGeometry relative="1" as="geometry">
            <Array as="points">
              <mxPoint x="-107" y="-64" />
              <mxPoint x="-107" y="-64" />
            </Array>
          </mxGeometry>
        </mxCell>
        <mxCell id="jzh1gqENJoQ-7TW8aTZ5-6" value="2" style="ellipse;html=1;" parent="1" vertex="1">
          <mxGeometry x="-136" y="-124" width="30" height="30" as="geometry" />
        </mxCell>
        <mxCell id="ua0UwOFp4txvmiH0tm5q-86" style="edgeStyle=orthogonalEdgeStyle;rounded=0;orthogonalLoop=1;jettySize=auto;html=1;exitX=0.5;exitY=1;exitDx=0;exitDy=0;entryX=0.636;entryY=0.012;entryDx=0;entryDy=0;entryPerimeter=0;" parent="1" edge="1">
          <mxGeometry relative="1" as="geometry">
            <mxPoint x="-79" y="-94" as="sourcePoint" />
            <mxPoint x="-77.07200000000012" y="-63.02800000000025" as="targetPoint" />
          </mxGeometry>
        </mxCell>
        <mxCell id="jzh1gqENJoQ-7TW8aTZ5-7" value="3" style="ellipse;html=1;" parent="1" vertex="1">
          <mxGeometry x="-91" y="-124" width="30" height="30" as="geometry" />
        </mxCell>
        <mxCell id="jzh1gqENJoQ-7TW8aTZ5-13" value="Output:&lt;br style=&quot;border-color: var(--border-color);&quot;&gt;&lt;br style=&quot;border-color: var(--border-color);&quot;&gt;List of QC derivatives (fig)&lt;br style=&quot;border-color: var(--border-color);&quot;&gt;Empty dict as Simple metric&lt;br style=&quot;border-color: var(--border-color);&quot;&gt;Str about no EOG artifacts detected" style="html=1;dashed=0;fontFamily=Helvetica;fontSize=12;fontColor=rgb(0, 0, 0);align=center;strokeColor=rgb(0, 0, 0);fillColor=rgb(255, 255, 255);" parent="1" vertex="1">
          <mxGeometry x="-780" y="-595.75" width="198" height="81" as="geometry" />
        </mxCell>
        <mxCell id="jzh1gqENJoQ-7TW8aTZ5-14" style="edgeStyle=orthogonalEdgeStyle;rounded=0;jumpStyle=arc;orthogonalLoop=1;jettySize=auto;html=1;entryX=0;entryY=0.5;entryDx=0;entryDy=0;" parent="1" source="jzh1gqENJoQ-7TW8aTZ5-3" target="jzh1gqENJoQ-7TW8aTZ5-13" edge="1">
          <mxGeometry relative="1" as="geometry" />
        </mxCell>
        <mxCell id="jzh1gqENJoQ-7TW8aTZ5-16" value="" style="edgeStyle=orthogonalEdgeStyle;rounded=0;jumpStyle=arc;orthogonalLoop=1;jettySize=auto;html=1;entryX=0.707;entryY=0.022;entryDx=0;entryDy=0;entryPerimeter=0;" parent="1" source="jzh1gqENJoQ-7TW8aTZ5-15" target="jzh1gqENJoQ-7TW8aTZ5-13" edge="1">
          <mxGeometry relative="1" as="geometry" />
        </mxCell>
        <mxCell id="jzh1gqENJoQ-7TW8aTZ5-15" value="2" style="ellipse;html=1;" parent="1" vertex="1">
          <mxGeometry x="-655" y="-669" width="30" height="30" as="geometry" />
        </mxCell>
        <mxCell id="q_XP9tdPbFsaZTS1878Z-77" value="&lt;font style=&quot;border-color: var(--border-color); background-color: initial;&quot;&gt;For&amp;nbsp;&lt;b style=&quot;border-color: var(--border-color);&quot;&gt;mean overall epoch&amp;nbsp;&lt;/b&gt;&lt;/font&gt;detect peaks and evaluate if the epoch has an expected wave shape based on number and location of peaks&lt;br style=&quot;border-color: var(--border-color);&quot;&gt;&lt;br style=&quot;border-color: var(--border-color);&quot;&gt;&lt;b&gt;&lt;i&gt;find_peaks_and_detect_Rwave()&lt;/i&gt;&lt;/b&gt;" style="html=1;align=center;verticalAlign=middle;rounded=1;absoluteArcSize=1;arcSize=25;dashed=0;fontFamily=Helvetica;fontSize=12;whiteSpace=wrap;container=0;noLabel=0;imageAlign=center;" parent="1" vertex="1">
          <mxGeometry x="-1158" y="-873" width="245.99999999999997" height="88" as="geometry" />
        </mxCell>
        <mxCell id="q_XP9tdPbFsaZTS1878Z-78" value="pinOut 2" style="fontStyle=0;labelPosition=center;verticalLabelPosition=bottom;align=center;verticalAlign=top;spacingLeft=2;fontFamily=Helvetica;fontSize=12;resizable=0;container=0;noLabel=1;" parent="1" vertex="1">
          <mxGeometry x="-1049.375" y="-785" width="30" height="10" as="geometry" />
        </mxCell>
        <mxCell id="q_XP9tdPbFsaZTS1878Z-79" value="pinIn 1" style="fontStyle=0;labelPosition=center;verticalLabelPosition=top;align=center;verticalAlign=bottom;spacingLeft=2;fontFamily=Helvetica;fontSize=12;resizable=0;container=0;noLabel=1;" parent="1" vertex="1">
          <mxGeometry x="-1049.375" y="-883" width="30" height="10" as="geometry" />
        </mxCell>
        <mxCell id="q_XP9tdPbFsaZTS1878Z-80" value="" style="edgeStyle=orthogonalEdgeStyle;rounded=0;orthogonalLoop=1;jettySize=auto;html=1;" parent="1" source="q_XP9tdPbFsaZTS1878Z-54" target="q_XP9tdPbFsaZTS1878Z-79" edge="1">
          <mxGeometry relative="1" as="geometry">
            <Array as="points">
              <mxPoint x="-1034" y="-914" />
              <mxPoint x="-1034" y="-914" />
            </Array>
          </mxGeometry>
        </mxCell>
        <mxCell id="q_XP9tdPbFsaZTS1878Z-53" value="&lt;font style=&quot;border-color: var(--border-color); background-color: initial; text-align: left;&quot;&gt;Calculate &lt;b&gt;mean overall epoch&lt;/b&gt; averaged over&lt;/font&gt;&amp;nbsp;all channels&amp;nbsp;&lt;br style=&quot;border-color: var(--border-color);&quot;&gt;&lt;br style=&quot;border-color: var(--border-color);&quot;&gt;&lt;b style=&quot;border-color: var(--border-color);&quot;&gt;&lt;i style=&quot;border-color: var(--border-color);&quot;&gt;np.mean()&lt;/i&gt;&lt;/b&gt;" style="html=1;align=center;verticalAlign=middle;rounded=1;absoluteArcSize=1;arcSize=25;dashed=0;fontFamily=Helvetica;fontSize=12;whiteSpace=wrap;container=0;noLabel=0;imageAlign=center;" parent="1" vertex="1">
          <mxGeometry x="-1157" y="-1010" width="240" height="80" as="geometry" />
        </mxCell>
        <mxCell id="q_XP9tdPbFsaZTS1878Z-54" value="pinOut 2" style="fontStyle=0;labelPosition=center;verticalLabelPosition=bottom;align=center;verticalAlign=top;spacingLeft=2;fontFamily=Helvetica;fontSize=12;resizable=0;container=0;noLabel=1;" parent="1" vertex="1">
          <mxGeometry x="-1052" y="-930" width="30" height="10" as="geometry" />
        </mxCell>
        <mxCell id="q_XP9tdPbFsaZTS1878Z-55" value="pinIn 1" style="fontStyle=0;labelPosition=center;verticalLabelPosition=top;align=center;verticalAlign=bottom;spacingLeft=2;fontFamily=Helvetica;fontSize=12;resizable=0;container=0;noLabel=1;" parent="1" vertex="1">
          <mxGeometry x="-1052" y="-1020" width="30" height="10" as="geometry" />
        </mxCell>
        <mxCell id="jzh1gqENJoQ-7TW8aTZ5-3" value="" style="shape=sumEllipse;perimeter=ellipsePerimeter;whiteSpace=wrap;html=1;backgroundOutline=1;fontFamily=Courier New;fontSize=12;" parent="1" vertex="1">
          <mxGeometry x="-873" y="-570" width="30" height="30" as="geometry" />
        </mxCell>
        <mxCell id="q_XP9tdPbFsaZTS1878Z-101" value="" style="group" parent="1" vertex="1" connectable="0">
          <mxGeometry x="-1113" y="-604" width="395" height="590" as="geometry" />
        </mxCell>
        <mxCell id="q_XP9tdPbFsaZTS1878Z-102" value="Plot&amp;nbsp;&lt;b style=&quot;border-color: var(--border-color);&quot;&gt;mean overall&lt;/b&gt;&lt;span style=&quot;border-color: var(--border-color);&quot;&gt;&amp;nbsp;&lt;b&gt;epoch&lt;/b&gt; and highlight detected peaks&lt;/span&gt;&lt;br style=&quot;border-color: var(--border-color);&quot;&gt;&lt;br style=&quot;border-color: var(--border-color);&quot;&gt;&lt;b&gt;&lt;i&gt;plot_epoch_and_peak()&lt;/i&gt;&lt;/b&gt;" style="html=1;align=center;verticalAlign=middle;rounded=1;absoluteArcSize=1;arcSize=25;dashed=0;fontFamily=Helvetica;fontSize=12;whiteSpace=wrap;container=0;noLabel=0;imageAlign=center;" parent="q_XP9tdPbFsaZTS1878Z-101" vertex="1">
          <mxGeometry x="-42" y="-120" width="240" height="80" as="geometry" />
        </mxCell>
        <mxCell id="q_XP9tdPbFsaZTS1878Z-106" value="pinIn 1" style="fontStyle=0;labelPosition=center;verticalLabelPosition=top;align=center;verticalAlign=bottom;spacingLeft=2;fontFamily=Helvetica;fontSize=12;resizable=0;container=0;noLabel=1;" parent="q_XP9tdPbFsaZTS1878Z-101" vertex="1">
          <mxGeometry x="65" y="-130" width="30" height="10" as="geometry" />
        </mxCell>
        <mxCell id="q_XP9tdPbFsaZTS1878Z-115" value="pinOut 1" style="fontStyle=0;labelPosition=right;verticalLabelPosition=middle;align=left;verticalAlign=middle;spacingLeft=2;fontFamily=Helvetica;fontSize=12;resizable=0;container=0;noLabel=1;" parent="q_XP9tdPbFsaZTS1878Z-101" vertex="1">
          <mxGeometry x="198" y="-94.99999999999977" width="10" height="30" as="geometry" />
        </mxCell>
        <mxCell id="ua0UwOFp4txvmiH0tm5q-27" value="" style="edgeStyle=orthogonalEdgeStyle;rounded=0;orthogonalLoop=1;jettySize=auto;html=1;" parent="1" source="huTJLk3M8OtfZe6XO08h-6" target="ua0UwOFp4txvmiH0tm5q-26" edge="1">
          <mxGeometry relative="1" as="geometry" />
        </mxCell>
        <mxCell id="ua0UwOFp4txvmiH0tm5q-28" value="False" style="edgeLabel;html=1;align=center;verticalAlign=middle;resizable=0;points=[];" parent="ua0UwOFp4txvmiH0tm5q-27" vertex="1" connectable="0">
          <mxGeometry x="-0.2923" y="1" relative="1" as="geometry">
            <mxPoint y="1" as="offset" />
          </mxGeometry>
        </mxCell>
        <mxCell id="ua0UwOFp4txvmiH0tm5q-38" style="edgeStyle=orthogonalEdgeStyle;rounded=0;orthogonalLoop=1;jettySize=auto;html=1;entryX=0.5;entryY=0;entryDx=0;entryDy=0;" parent="1" source="huTJLk3M8OtfZe6XO08h-6" target="ua0UwOFp4txvmiH0tm5q-36" edge="1">
          <mxGeometry relative="1" as="geometry" />
        </mxCell>
        <mxCell id="ua0UwOFp4txvmiH0tm5q-39" value="True" style="edgeLabel;html=1;align=center;verticalAlign=middle;resizable=0;points=[];" parent="ua0UwOFp4txvmiH0tm5q-38" vertex="1" connectable="0">
          <mxGeometry x="-0.0744" y="2" relative="1" as="geometry">
            <mxPoint as="offset" />
          </mxGeometry>
        </mxCell>
        <mxCell id="huTJLk3M8OtfZe6XO08h-6" value="Mean wave is good?" style="rhombus;whiteSpace=wrap;html=1;fontFamily=Helvetica;fontColor=#000000;" parent="1" vertex="1">
          <mxGeometry x="-717.4999999999999" y="-2060" width="140" height="80" as="geometry" />
        </mxCell>
        <mxCell id="Nbf0Tub4fTZDGGXtQ6uE-28" style="edgeStyle=orthogonalEdgeStyle;rounded=0;orthogonalLoop=1;jettySize=auto;html=1;entryX=0.162;entryY=-0.012;entryDx=0;entryDy=0;entryPerimeter=0;fontFamily=Helvetica;fontColor=#000000;" parent="1" source="Nbf0Tub4fTZDGGXtQ6uE-26" target="zNMVAwUSSOP5G73fzrCB-8" edge="1">
          <mxGeometry relative="1" as="geometry" />
        </mxCell>
        <mxCell id="Nbf0Tub4fTZDGGXtQ6uE-26" value="1" style="ellipse;html=1;" parent="1" vertex="1">
          <mxGeometry x="-182" y="-124" width="30" height="30" as="geometry" />
        </mxCell>
        <mxCell id="ua0UwOFp4txvmiH0tm5q-1" value="" style="group;flipV=1;" parent="1" vertex="1" connectable="0">
          <mxGeometry x="-775" y="-2520" width="250" height="90" as="geometry" />
        </mxCell>
        <mxCell id="ua0UwOFp4txvmiH0tm5q-2" value="Detect EOG channel (blinks) and get its data:&lt;br&gt;&lt;br&gt;&lt;b&gt;&lt;i&gt;get_EOG_data()&lt;/i&gt;&lt;/b&gt;" style="html=1;align=center;verticalAlign=middle;rounded=1;absoluteArcSize=1;arcSize=25;dashed=0;fontFamily=Helvetica;fontSize=12;whiteSpace=wrap;container=0;noLabel=0;imageAlign=center;" parent="ua0UwOFp4txvmiH0tm5q-1" vertex="1">
          <mxGeometry x="10" width="240" height="80" as="geometry" />
        </mxCell>
        <mxCell id="ua0UwOFp4txvmiH0tm5q-4" value="pinIn 1" style="fontStyle=0;labelPosition=center;verticalLabelPosition=top;align=center;verticalAlign=bottom;spacingLeft=2;fontFamily=Helvetica;fontSize=12;resizable=0;container=0;noLabel=1;" parent="ua0UwOFp4txvmiH0tm5q-1" vertex="1">
          <mxGeometry x="115" y="80" width="30" height="10" as="geometry" />
        </mxCell>
        <mxCell id="ua0UwOFp4txvmiH0tm5q-7" style="edgeStyle=orthogonalEdgeStyle;rounded=0;orthogonalLoop=1;jettySize=auto;html=1;exitX=0.5;exitY=1;exitDx=0;exitDy=0;entryX=0.5;entryY=0;entryDx=0;entryDy=0;" parent="1" source="q_XP9tdPbFsaZTS1878Z-10" target="ua0UwOFp4txvmiH0tm5q-2" edge="1">
          <mxGeometry relative="1" as="geometry" />
        </mxCell>
        <mxCell id="ua0UwOFp4txvmiH0tm5q-8" value="" style="group;flipV=1;" parent="1" vertex="1" connectable="0">
          <mxGeometry x="-774" y="-2274" width="243" height="145" as="geometry" />
        </mxCell>
        <mxCell id="ua0UwOFp4txvmiH0tm5q-9" value="&lt;div style=&quot;line-height: 18px;&quot;&gt;&lt;p style=&quot;&quot;&gt;Calculate&lt;b&gt; mean wave&lt;/b&gt; based on either real EOG channel data or on reconstructed data (depending on the method used)&lt;br&gt;     and check if it has a wave shape&lt;/p&gt;&lt;p style=&quot;&quot;&gt;Plot mean wave if calculation succeeded&lt;br&gt;&lt;b&gt;&lt;i&gt;check_mean_wave()&lt;/i&gt;&lt;/b&gt;&lt;/p&gt;&lt;/div&gt;" style="html=1;align=center;verticalAlign=middle;rounded=1;absoluteArcSize=1;arcSize=25;dashed=0;fontFamily=Helvetica;fontSize=12;whiteSpace=wrap;container=0;noLabel=0;imageAlign=center;" parent="ua0UwOFp4txvmiH0tm5q-8" vertex="1">
          <mxGeometry x="9.72" width="233.28" height="128.8888888888889" as="geometry" />
        </mxCell>
        <mxCell id="ua0UwOFp4txvmiH0tm5q-10" value="pinIn 1" style="fontStyle=0;labelPosition=center;verticalLabelPosition=top;align=center;verticalAlign=bottom;spacingLeft=2;fontFamily=Helvetica;fontSize=12;resizable=0;container=0;noLabel=1;" parent="ua0UwOFp4txvmiH0tm5q-8" vertex="1">
          <mxGeometry x="111.78" y="128.8888888888889" width="30" height="10" as="geometry" />
        </mxCell>
        <mxCell id="ua0UwOFp4txvmiH0tm5q-20" value="1" style="ellipse;html=1;" parent="1" vertex="1">
          <mxGeometry x="-488" y="-2229" width="30" height="30" as="geometry" />
        </mxCell>
        <mxCell id="ua0UwOFp4txvmiH0tm5q-24" value="" style="edgeStyle=orthogonalEdgeStyle;rounded=0;orthogonalLoop=1;jettySize=auto;html=1;" parent="1" target="ua0UwOFp4txvmiH0tm5q-20" edge="1">
          <mxGeometry relative="1" as="geometry">
            <mxPoint x="-522" y="-2214" as="sourcePoint" />
          </mxGeometry>
        </mxCell>
        <mxCell id="ua0UwOFp4txvmiH0tm5q-92" style="edgeStyle=orthogonalEdgeStyle;rounded=0;orthogonalLoop=1;jettySize=auto;html=1;entryX=0;entryY=0.5;entryDx=0;entryDy=0;" parent="1" source="ua0UwOFp4txvmiH0tm5q-26" target="ua0UwOFp4txvmiH0tm5q-91" edge="1">
          <mxGeometry relative="1" as="geometry" />
        </mxCell>
        <mxCell id="ua0UwOFp4txvmiH0tm5q-26" value="" style="shape=sumEllipse;perimeter=ellipsePerimeter;html=1;backgroundOutline=1;" parent="1" vertex="1">
          <mxGeometry x="-480" y="-2035" width="30" height="30" as="geometry" />
        </mxCell>
        <mxCell id="ua0UwOFp4txvmiH0tm5q-35" value="" style="group;flipV=1;" parent="1" vertex="1" connectable="0">
          <mxGeometry x="-767" y="-1920" width="240" height="100" as="geometry" />
        </mxCell>
        <mxCell id="ua0UwOFp4txvmiH0tm5q-36" value="&lt;font style=&quot;font-size: 12px;&quot;&gt;Create EOG epochs for all channels based on the recorded or reconstructed EOG channel&lt;br&gt;&lt;br&gt;&lt;/font&gt;&lt;div style=&quot;line-height: 18px;&quot;&gt;&lt;font style=&quot;font-size: 12px;&quot;&gt;&lt;b&gt;&lt;i&gt;mne.preprocessing.create_eog_epochs()&lt;/i&gt;&lt;/b&gt;&lt;/font&gt;&lt;/div&gt;" style="html=1;align=center;verticalAlign=middle;rounded=1;absoluteArcSize=1;arcSize=25;dashed=0;fontFamily=Helvetica;fontSize=12;whiteSpace=wrap;container=0;noLabel=0;imageAlign=center;" parent="ua0UwOFp4txvmiH0tm5q-35" vertex="1">
          <mxGeometry width="240.00000000000003" height="88.89" as="geometry" />
        </mxCell>
        <mxCell id="ua0UwOFp4txvmiH0tm5q-37" value="pinIn 1" style="fontStyle=0;labelPosition=center;verticalLabelPosition=top;align=center;verticalAlign=bottom;spacingLeft=2;fontFamily=Helvetica;fontSize=12;resizable=0;container=0;noLabel=1;" parent="ua0UwOFp4txvmiH0tm5q-35" vertex="1">
          <mxGeometry x="105.39999999999999" y="88.88888888888889" width="30" height="10" as="geometry" />
        </mxCell>
        <mxCell id="ua0UwOFp4txvmiH0tm5q-40" value="" style="group;direction=west;flipH=1;" parent="1" vertex="1" connectable="0">
          <mxGeometry x="-766" y="-1780" width="250" height="90" as="geometry" />
        </mxCell>
        <mxCell id="ua0UwOFp4txvmiH0tm5q-41" value="Visualise EOG artifacts on channels using MNE&lt;br&gt;&lt;br&gt;&lt;b&gt;&lt;i&gt;plot_ecg_eog_mne&lt;font face=&quot;Courier New&quot;&gt;()&lt;/font&gt;&lt;/i&gt;&lt;/b&gt;" style="html=1;align=center;verticalAlign=middle;rounded=1;absoluteArcSize=1;arcSize=25;dashed=0;fontFamily=Helvetica;fontSize=12;whiteSpace=wrap;container=0;noLabel=0;imageAlign=center;" parent="ua0UwOFp4txvmiH0tm5q-40" vertex="1">
          <mxGeometry y="10" width="240" height="80" as="geometry" />
        </mxCell>
        <mxCell id="ua0UwOFp4txvmiH0tm5q-42" value="pinIn 2" style="fontStyle=0;labelPosition=left;verticalLabelPosition=middle;align=right;verticalAlign=middle;spacingLeft=2;fontFamily=Helvetica;fontSize=12;flipH=0;resizable=0;container=0;noLabel=1;" parent="ua0UwOFp4txvmiH0tm5q-40" vertex="1">
          <mxGeometry x="240" y="35" width="10" height="30" as="geometry" />
        </mxCell>
        <mxCell id="ua0UwOFp4txvmiH0tm5q-43" value="pinIn 1" style="fontStyle=0;labelPosition=center;verticalLabelPosition=top;align=center;verticalAlign=bottom;spacingLeft=2;fontFamily=Helvetica;fontSize=12;resizable=0;container=0;noLabel=1;" parent="ua0UwOFp4txvmiH0tm5q-40" vertex="1">
          <mxGeometry x="105" width="30" height="10" as="geometry" />
        </mxCell>
        <mxCell id="ua0UwOFp4txvmiH0tm5q-44" value="2" style="ellipse;html=1;" parent="1" vertex="1">
          <mxGeometry x="-480" y="-1745" width="30" height="30" as="geometry" />
        </mxCell>
        <mxCell id="ua0UwOFp4txvmiH0tm5q-45" value="" style="edgeStyle=orthogonalEdgeStyle;rounded=0;orthogonalLoop=1;jettySize=auto;html=1;" parent="1" source="ua0UwOFp4txvmiH0tm5q-37" target="ua0UwOFp4txvmiH0tm5q-43" edge="1">
          <mxGeometry relative="1" as="geometry" />
        </mxCell>
        <mxCell id="ua0UwOFp4txvmiH0tm5q-46" value="" style="edgeStyle=orthogonalEdgeStyle;rounded=0;orthogonalLoop=1;jettySize=auto;html=1;" parent="1" source="ua0UwOFp4txvmiH0tm5q-42" target="ua0UwOFp4txvmiH0tm5q-44" edge="1">
          <mxGeometry relative="1" as="geometry" />
        </mxCell>
        <mxCell id="ua0UwOFp4txvmiH0tm5q-47" value="" style="group" parent="1" vertex="1" connectable="0">
          <mxGeometry x="-767" y="-1640" width="235" height="150" as="geometry" />
        </mxCell>
        <mxCell id="ua0UwOFp4txvmiH0tm5q-48" value="- Calculate mean ECG artifact for every channel,&lt;br&gt;- Calculate &lt;b&gt;&lt;i&gt;smoothed&lt;/i&gt;&lt;/b&gt; mean EOG signal for every channel using Gaussian kernel,&lt;br&gt;- Assign lobe color code to each channel for&amp;nbsp; plotting&lt;br&gt;&lt;br&gt;&lt;b&gt;&lt;i&gt;calculate_artifacts_on_channels&lt;font face=&quot;Courier New&quot;&gt;()&lt;/font&gt;&lt;/i&gt;&lt;/b&gt;" style="html=1;align=center;verticalAlign=middle;rounded=1;absoluteArcSize=1;arcSize=25;dashed=0;fontFamily=Helvetica;fontSize=12;whiteSpace=wrap;container=0;noLabel=0;imageAlign=center;" parent="ua0UwOFp4txvmiH0tm5q-47" vertex="1">
          <mxGeometry y="13" width="235" height="120" as="geometry" />
        </mxCell>
        <mxCell id="ua0UwOFp4txvmiH0tm5q-49" value="pinOut 2" style="fontStyle=0;labelPosition=center;verticalLabelPosition=bottom;align=center;verticalAlign=top;spacingLeft=2;fontFamily=Helvetica;fontSize=12;resizable=0;container=0;noLabel=1;" parent="ua0UwOFp4txvmiH0tm5q-47" vertex="1">
          <mxGeometry x="102.8125" y="133.00000000000003" width="30" height="10" as="geometry" />
        </mxCell>
        <mxCell id="ua0UwOFp4txvmiH0tm5q-50" value="pinIn 1" style="fontStyle=0;labelPosition=center;verticalLabelPosition=top;align=center;verticalAlign=bottom;spacingLeft=2;fontFamily=Helvetica;fontSize=12;resizable=0;container=0;noLabel=1;" parent="ua0UwOFp4txvmiH0tm5q-47" vertex="1">
          <mxGeometry x="102.8125" y="2.5" width="30" height="10" as="geometry" />
        </mxCell>
        <mxCell id="ua0UwOFp4txvmiH0tm5q-51" style="edgeStyle=orthogonalEdgeStyle;rounded=0;orthogonalLoop=1;jettySize=auto;html=1;exitX=0.25;exitY=1;exitDx=0;exitDy=0;entryX=0.584;entryY=0;entryDx=0;entryDy=0;entryPerimeter=0;" parent="1" source="ua0UwOFp4txvmiH0tm5q-37" target="ua0UwOFp4txvmiH0tm5q-50" edge="1">
          <mxGeometry relative="1" as="geometry">
            <mxPoint x="-622" y="-1660" as="targetPoint" />
            <Array as="points">
              <mxPoint x="-654" y="-1800" />
              <mxPoint x="-812" y="-1800" />
              <mxPoint x="-812" y="-1660" />
              <mxPoint x="-647" y="-1660" />
            </Array>
          </mxGeometry>
        </mxCell>
        <mxCell id="ua0UwOFp4txvmiH0tm5q-57" value="" style="group" parent="1" vertex="1" connectable="0">
          <mxGeometry x="-440" y="-1178" width="240" height="150" as="geometry" />
        </mxCell>
        <mxCell id="ua0UwOFp4txvmiH0tm5q-58" value="Use Pearson correlation of &lt;b&gt;mean wave&lt;/b&gt; with the EOG signal data of each channel to find the correlation coefficient for each channel. Higher correlation -&amp;gt; channel is more affected by EOG contamination&lt;br&gt;&lt;br&gt;&lt;b&gt;find_affected_by_correlation&lt;i&gt;&lt;font face=&quot;Courier New&quot;&gt;()&lt;/font&gt;&lt;/i&gt;&lt;/b&gt;" style="html=1;align=center;verticalAlign=middle;rounded=1;absoluteArcSize=1;arcSize=25;dashed=0;fontFamily=Helvetica;fontSize=12;whiteSpace=wrap;container=0;noLabel=0;imageAlign=center;" parent="ua0UwOFp4txvmiH0tm5q-57" vertex="1">
          <mxGeometry y="14.999999999999998" width="240" height="119.99999999999999" as="geometry" />
        </mxCell>
        <mxCell id="ua0UwOFp4txvmiH0tm5q-59" value="pinOut 2" style="fontStyle=0;labelPosition=center;verticalLabelPosition=bottom;align=center;verticalAlign=top;spacingLeft=2;fontFamily=Helvetica;fontSize=12;resizable=0;container=0;noLabel=1;" parent="ua0UwOFp4txvmiH0tm5q-57" vertex="1">
          <mxGeometry x="105" y="135" width="30" height="10" as="geometry" />
        </mxCell>
        <mxCell id="ua0UwOFp4txvmiH0tm5q-60" value="pinIn 1" style="fontStyle=0;labelPosition=center;verticalLabelPosition=top;align=center;verticalAlign=bottom;spacingLeft=2;fontFamily=Helvetica;fontSize=12;resizable=0;container=0;noLabel=1;" parent="ua0UwOFp4txvmiH0tm5q-57" vertex="1">
          <mxGeometry x="105" y="5" width="30" height="10" as="geometry" />
        </mxCell>
        <mxCell id="ua0UwOFp4txvmiH0tm5q-63" value="" style="group;flipH=1;" parent="1" vertex="1" connectable="0">
          <mxGeometry x="-440" y="-988" width="250" height="90" as="geometry" />
        </mxCell>
        <mxCell id="ua0UwOFp4txvmiH0tm5q-64" value="Plot artifact data of each channel sorted by their correlation coefficient&lt;br&gt;&lt;br&gt;&lt;i&gt;&lt;b&gt;plot_artif_per_ch_correlated_lobes&lt;/b&gt;&lt;/i&gt;&lt;b&gt;&lt;i&gt;&lt;font face=&quot;Courier New&quot;&gt;()&lt;/font&gt;&lt;/i&gt;&lt;/b&gt;" style="html=1;align=center;verticalAlign=middle;rounded=1;absoluteArcSize=1;arcSize=25;dashed=0;fontFamily=Helvetica;fontSize=12;whiteSpace=wrap;container=0;noLabel=0;imageAlign=center;" parent="ua0UwOFp4txvmiH0tm5q-63" vertex="1">
          <mxGeometry y="10" width="240" height="80" as="geometry" />
        </mxCell>
        <mxCell id="ua0UwOFp4txvmiH0tm5q-65" value="pinIn 2" style="fontStyle=0;labelPosition=left;verticalLabelPosition=middle;align=right;verticalAlign=middle;spacingLeft=2;fontFamily=Helvetica;fontSize=12;flipH=0;resizable=0;container=0;noLabel=1;" parent="ua0UwOFp4txvmiH0tm5q-63" vertex="1">
          <mxGeometry x="240" y="35" width="10" height="30" as="geometry" />
        </mxCell>
        <mxCell id="ua0UwOFp4txvmiH0tm5q-66" value="pinIn 1" style="fontStyle=0;labelPosition=center;verticalLabelPosition=top;align=center;verticalAlign=bottom;spacingLeft=2;fontFamily=Helvetica;fontSize=12;resizable=0;container=0;noLabel=1;" parent="ua0UwOFp4txvmiH0tm5q-63" vertex="1">
          <mxGeometry x="105" width="30" height="10" as="geometry" />
        </mxCell>
        <mxCell id="ua0UwOFp4txvmiH0tm5q-67" value="3" style="ellipse;html=1;" parent="1" vertex="1">
          <mxGeometry x="-140" y="-953" width="30" height="30" as="geometry" />
        </mxCell>
        <mxCell id="ua0UwOFp4txvmiH0tm5q-68" style="edgeStyle=orthogonalEdgeStyle;rounded=0;orthogonalLoop=1;jettySize=auto;html=1;entryX=0;entryY=0.5;entryDx=0;entryDy=0;" parent="1" source="ua0UwOFp4txvmiH0tm5q-65" target="ua0UwOFp4txvmiH0tm5q-67" edge="1">
          <mxGeometry relative="1" as="geometry" />
        </mxCell>
        <mxCell id="ua0UwOFp4txvmiH0tm5q-69" style="edgeStyle=orthogonalEdgeStyle;rounded=0;orthogonalLoop=1;jettySize=auto;html=1;exitX=0.5;exitY=1;exitDx=0;exitDy=0;entryX=0.5;entryY=0;entryDx=0;entryDy=0;" parent="1" source="ua0UwOFp4txvmiH0tm5q-59" target="ua0UwOFp4txvmiH0tm5q-66" edge="1">
          <mxGeometry relative="1" as="geometry" />
        </mxCell>
        <mxCell id="ua0UwOFp4txvmiH0tm5q-70" value="" style="group;flipH=1;" parent="1" vertex="1" connectable="0">
          <mxGeometry x="-440" y="-868" width="250" height="90" as="geometry" />
        </mxCell>
        <mxCell id="ua0UwOFp4txvmiH0tm5q-71" value="Plot correlation coefficient and p values for each channel&lt;br&gt;&lt;br&gt;&lt;i style=&quot;&quot;&gt;&lt;font style=&quot;&quot;&gt;&lt;b&gt;plot_correlation&lt;/b&gt;&lt;font face=&quot;Courier New&quot;&gt;&lt;b&gt;()&lt;/b&gt;&lt;/font&gt;&lt;/font&gt;&lt;/i&gt;" style="html=1;align=center;verticalAlign=middle;rounded=1;absoluteArcSize=1;arcSize=25;dashed=0;fontFamily=Helvetica;fontSize=12;whiteSpace=wrap;container=0;noLabel=0;imageAlign=center;" parent="ua0UwOFp4txvmiH0tm5q-70" vertex="1">
          <mxGeometry y="10" width="240" height="80" as="geometry" />
        </mxCell>
        <mxCell id="ua0UwOFp4txvmiH0tm5q-72" value="pinIn 2" style="fontStyle=0;labelPosition=left;verticalLabelPosition=middle;align=right;verticalAlign=middle;spacingLeft=2;fontFamily=Helvetica;fontSize=12;flipH=0;resizable=0;container=0;noLabel=1;" parent="ua0UwOFp4txvmiH0tm5q-70" vertex="1">
          <mxGeometry x="240" y="35" width="10" height="30" as="geometry" />
        </mxCell>
        <mxCell id="ua0UwOFp4txvmiH0tm5q-73" value="pinIn 1" style="fontStyle=0;labelPosition=center;verticalLabelPosition=top;align=center;verticalAlign=bottom;spacingLeft=2;fontFamily=Helvetica;fontSize=12;resizable=0;container=0;noLabel=1;" parent="ua0UwOFp4txvmiH0tm5q-70" vertex="1">
          <mxGeometry x="105" width="30" height="10" as="geometry" />
        </mxCell>
        <mxCell id="ua0UwOFp4txvmiH0tm5q-74" style="edgeStyle=orthogonalEdgeStyle;rounded=0;orthogonalLoop=1;jettySize=auto;html=1;exitX=0.75;exitY=1;exitDx=0;exitDy=0;entryX=0.5;entryY=0;entryDx=0;entryDy=0;" parent="1" source="ua0UwOFp4txvmiH0tm5q-59" target="ua0UwOFp4txvmiH0tm5q-73" edge="1">
          <mxGeometry relative="1" as="geometry">
            <Array as="points">
              <mxPoint x="-310" y="-1033" />
              <mxPoint x="-310" y="-1008" />
              <mxPoint x="-80" y="-1008" />
              <mxPoint x="-80" y="-888" />
              <mxPoint x="-320" y="-888" />
            </Array>
          </mxGeometry>
        </mxCell>
        <mxCell id="ua0UwOFp4txvmiH0tm5q-75" value="4" style="ellipse;html=1;" parent="1" vertex="1">
          <mxGeometry x="-140" y="-833" width="30" height="30" as="geometry" />
        </mxCell>
        <mxCell id="ua0UwOFp4txvmiH0tm5q-76" style="edgeStyle=orthogonalEdgeStyle;rounded=0;orthogonalLoop=1;jettySize=auto;html=1;exitX=1;exitY=0.5;exitDx=0;exitDy=0;entryX=0;entryY=0.5;entryDx=0;entryDy=0;" parent="1" source="ua0UwOFp4txvmiH0tm5q-72" target="ua0UwOFp4txvmiH0tm5q-75" edge="1">
          <mxGeometry relative="1" as="geometry" />
        </mxCell>
        <mxCell id="ua0UwOFp4txvmiH0tm5q-81" style="edgeStyle=orthogonalEdgeStyle;rounded=0;orthogonalLoop=1;jettySize=auto;html=1;exitX=0.25;exitY=1;exitDx=0;exitDy=0;entryX=0.75;entryY=0;entryDx=0;entryDy=0;" parent="1" source="ua0UwOFp4txvmiH0tm5q-59" edge="1">
          <mxGeometry relative="1" as="geometry">
            <mxPoint x="-367.5" y="-1049" as="sourcePoint" />
            <mxPoint x="-593.5" y="-74" as="targetPoint" />
            <Array as="points">
              <mxPoint x="-327" y="-1010" />
              <mxPoint x="-500" y="-1010" />
              <mxPoint x="-500" y="-104" />
              <mxPoint x="-593" y="-104" />
            </Array>
          </mxGeometry>
        </mxCell>
        <mxCell id="ua0UwOFp4txvmiH0tm5q-87" style="edgeStyle=orthogonalEdgeStyle;rounded=0;orthogonalLoop=1;jettySize=auto;html=1;exitX=0.5;exitY=1;exitDx=0;exitDy=0;entryX=0.848;entryY=0.012;entryDx=0;entryDy=0;entryPerimeter=0;" parent="1" source="ua0UwOFp4txvmiH0tm5q-82" target="zNMVAwUSSOP5G73fzrCB-8" edge="1">
          <mxGeometry relative="1" as="geometry" />
        </mxCell>
        <mxCell id="ua0UwOFp4txvmiH0tm5q-82" value="4" style="ellipse;html=1;" parent="1" vertex="1">
          <mxGeometry x="-46" y="-124" width="30" height="30" as="geometry" />
        </mxCell>
        <mxCell id="ua0UwOFp4txvmiH0tm5q-91" value="Output:&lt;br style=&quot;border-color: var(--border-color);&quot;&gt;&lt;br style=&quot;border-color: var(--border-color);&quot;&gt;List of QC derivatives (fig)&lt;br style=&quot;border-color: var(--border-color);&quot;&gt;Empty dict as Simple metric&lt;br style=&quot;border-color: var(--border-color);&quot;&gt;Str about no EOG signal detected" style="html=1;dashed=0;fontFamily=Helvetica;fontSize=12;fontColor=rgb(0, 0, 0);align=center;strokeColor=rgb(0, 0, 0);fillColor=rgb(255, 255, 255);" parent="1" vertex="1">
          <mxGeometry x="-200" y="-2061" width="198" height="81" as="geometry" />
        </mxCell>
        <mxCell id="ua0UwOFp4txvmiH0tm5q-97" style="edgeStyle=orthogonalEdgeStyle;rounded=0;orthogonalLoop=1;jettySize=auto;html=1;entryX=0.278;entryY=0.003;entryDx=0;entryDy=0;entryPerimeter=0;" parent="1" source="ua0UwOFp4txvmiH0tm5q-93" target="jzh1gqENJoQ-7TW8aTZ5-13" edge="1">
          <mxGeometry relative="1" as="geometry" />
        </mxCell>
        <mxCell id="ua0UwOFp4txvmiH0tm5q-98" style="edgeStyle=orthogonalEdgeStyle;rounded=0;orthogonalLoop=1;jettySize=auto;html=1;exitX=0.25;exitY=1;exitDx=0;exitDy=0;entryX=0.5;entryY=0;entryDx=0;entryDy=0;" parent="1" source="ua0UwOFp4txvmiH0tm5q-49" target="q_XP9tdPbFsaZTS1878Z-46" edge="1">
          <mxGeometry relative="1" as="geometry">
            <Array as="points">
              <mxPoint x="-657" y="-1460" />
              <mxPoint x="-1037" y="-1460" />
            </Array>
            <mxPoint x="-1060" y="-1330" as="targetPoint" />
          </mxGeometry>
        </mxCell>
        <mxCell id="ua0UwOFp4txvmiH0tm5q-99" style="edgeStyle=orthogonalEdgeStyle;rounded=0;orthogonalLoop=1;jettySize=auto;html=1;exitX=0.75;exitY=1;exitDx=0;exitDy=0;entryX=0.5;entryY=0;entryDx=0;entryDy=0;" parent="1" source="ua0UwOFp4txvmiH0tm5q-49" target="ua0UwOFp4txvmiH0tm5q-60" edge="1">
          <mxGeometry relative="1" as="geometry">
            <Array as="points">
              <mxPoint x="-642" y="-1460" />
              <mxPoint x="-320" y="-1460" />
            </Array>
            <mxPoint x="-340" y="-1310" as="targetPoint" />
          </mxGeometry>
        </mxCell>
        <mxCell id="ua0UwOFp4txvmiH0tm5q-100" style="edgeStyle=orthogonalEdgeStyle;rounded=0;orthogonalLoop=1;jettySize=auto;html=1;exitX=0.75;exitY=1;exitDx=0;exitDy=0;jumpStyle=arc;entryX=0.75;entryY=0;entryDx=0;entryDy=0;" parent="1" source="ua0UwOFp4txvmiH0tm5q-10" target="ua0UwOFp4txvmiH0tm5q-60" edge="1">
          <mxGeometry relative="1" as="geometry">
            <Array as="points">
              <mxPoint x="-640" y="-2120" />
              <mxPoint x="-312" y="-2120" />
              <mxPoint x="-312" y="-1340" />
            </Array>
            <mxPoint x="-312" y="-1310" as="targetPoint" />
          </mxGeometry>
        </mxCell>
        <mxCell id="TA8RBadlavMFpg_JwYuW-1" value="pinIn 2" style="fontStyle=0;labelPosition=left;verticalLabelPosition=middle;align=right;verticalAlign=middle;spacingLeft=2;fontFamily=Helvetica;fontSize=12;flipH=0;resizable=0;container=0;noLabel=1;" parent="1" vertex="1">
          <mxGeometry x="-532" y="-2229" width="10" height="30" as="geometry" />
        </mxCell>
        <mxCell id="TA8RBadlavMFpg_JwYuW-2" style="edgeStyle=orthogonalEdgeStyle;rounded=0;orthogonalLoop=1;jettySize=auto;html=1;exitX=0.25;exitY=1;exitDx=0;exitDy=0;entryX=0.5;entryY=0;entryDx=0;entryDy=0;" parent="1" source="ua0UwOFp4txvmiH0tm5q-10" target="huTJLk3M8OtfZe6XO08h-6" edge="1">
          <mxGeometry relative="1" as="geometry">
            <Array as="points">
              <mxPoint x="-647" y="-2135" />
            </Array>
          </mxGeometry>
        </mxCell>
        <mxCell id="vJdWvzgEycFzp4JEzYMt-11" value="" style="edgeStyle=orthogonalEdgeStyle;rounded=0;orthogonalLoop=1;jettySize=auto;html=1;" parent="1" source="vJdWvzgEycFzp4JEzYMt-1" target="vJdWvzgEycFzp4JEzYMt-10" edge="1">
          <mxGeometry relative="1" as="geometry" />
        </mxCell>
        <mxCell id="vJdWvzgEycFzp4JEzYMt-12" value="False" style="edgeLabel;html=1;align=center;verticalAlign=middle;resizable=0;points=[];" parent="vJdWvzgEycFzp4JEzYMt-11" vertex="1" connectable="0">
          <mxGeometry x="-0.3552" y="-2" relative="1" as="geometry">
            <mxPoint x="1" as="offset" />
          </mxGeometry>
        </mxCell>
        <mxCell id="vJdWvzgEycFzp4JEzYMt-16" value="" style="edgeStyle=orthogonalEdgeStyle;rounded=0;orthogonalLoop=1;jettySize=auto;html=1;" parent="1" source="vJdWvzgEycFzp4JEzYMt-1" target="ua0UwOFp4txvmiH0tm5q-9" edge="1">
          <mxGeometry relative="1" as="geometry" />
        </mxCell>
        <mxCell id="vJdWvzgEycFzp4JEzYMt-17" value="True" style="edgeLabel;html=1;align=center;verticalAlign=middle;resizable=0;points=[];" parent="vJdWvzgEycFzp4JEzYMt-16" vertex="1" connectable="0">
          <mxGeometry x="-0.2157" y="-1" relative="1" as="geometry">
            <mxPoint as="offset" />
          </mxGeometry>
        </mxCell>
        <mxCell id="vJdWvzgEycFzp4JEzYMt-1" value="EOG channel present?" style="rhombus;whiteSpace=wrap;html=1;fontFamily=Helvetica;fontColor=#000000;" parent="1" vertex="1">
          <mxGeometry x="-717.4999999999999" y="-2410" width="140" height="80" as="geometry" />
        </mxCell>
        <mxCell id="vJdWvzgEycFzp4JEzYMt-18" style="edgeStyle=orthogonalEdgeStyle;rounded=0;orthogonalLoop=1;jettySize=auto;html=1;entryX=0.75;entryY=0;entryDx=0;entryDy=0;" parent="1" source="vJdWvzgEycFzp4JEzYMt-5" target="q_XP9tdPbFsaZTS1878Z-46" edge="1">
          <mxGeometry relative="1" as="geometry" />
        </mxCell>
        <mxCell id="vJdWvzgEycFzp4JEzYMt-22" value="Method: mean_threshold" style="edgeLabel;html=1;align=center;verticalAlign=middle;resizable=0;points=[];" parent="vJdWvzgEycFzp4JEzYMt-18" vertex="1" connectable="0">
          <mxGeometry x="-0.0914" y="-1" relative="1" as="geometry">
            <mxPoint as="offset" />
          </mxGeometry>
        </mxCell>
        <mxCell id="vJdWvzgEycFzp4JEzYMt-19" style="edgeStyle=orthogonalEdgeStyle;rounded=0;orthogonalLoop=1;jettySize=auto;html=1;entryX=0.25;entryY=0;entryDx=0;entryDy=0;" parent="1" source="vJdWvzgEycFzp4JEzYMt-5" target="ua0UwOFp4txvmiH0tm5q-60" edge="1">
          <mxGeometry relative="1" as="geometry" />
        </mxCell>
        <mxCell id="vJdWvzgEycFzp4JEzYMt-21" value="Method: correlation" style="edgeLabel;html=1;align=center;verticalAlign=middle;resizable=0;points=[];" parent="vJdWvzgEycFzp4JEzYMt-19" vertex="1" connectable="0">
          <mxGeometry x="-0.3652" y="-1" relative="1" as="geometry">
            <mxPoint as="offset" />
          </mxGeometry>
        </mxCell>
        <mxCell id="vJdWvzgEycFzp4JEzYMt-5" value="Choose method" style="rhombus;whiteSpace=wrap;html=1;fontFamily=Helvetica;fontColor=#000000;" parent="1" vertex="1">
          <mxGeometry x="-716.9999999999999" y="-1420" width="140" height="80" as="geometry" />
        </mxCell>
        <mxCell id="vJdWvzgEycFzp4JEzYMt-7" style="edgeStyle=orthogonalEdgeStyle;rounded=0;orthogonalLoop=1;jettySize=auto;html=1;exitX=0.5;exitY=1;exitDx=0;exitDy=0;entryX=0.5;entryY=0;entryDx=0;entryDy=0;" parent="1" source="ua0UwOFp4txvmiH0tm5q-4" target="vJdWvzgEycFzp4JEzYMt-1" edge="1">
          <mxGeometry relative="1" as="geometry" />
        </mxCell>
        <mxCell id="vJdWvzgEycFzp4JEzYMt-14" style="edgeStyle=orthogonalEdgeStyle;rounded=0;orthogonalLoop=1;jettySize=auto;html=1;" parent="1" source="vJdWvzgEycFzp4JEzYMt-10" target="vJdWvzgEycFzp4JEzYMt-13" edge="1">
          <mxGeometry relative="1" as="geometry" />
        </mxCell>
        <mxCell id="vJdWvzgEycFzp4JEzYMt-10" value="" style="shape=sumEllipse;perimeter=ellipsePerimeter;html=1;backgroundOutline=1;" parent="1" vertex="1">
          <mxGeometry x="-486" y="-2385" width="30" height="30" as="geometry" />
        </mxCell>
        <mxCell id="vJdWvzgEycFzp4JEzYMt-13" value="Output:&lt;br style=&quot;border-color: var(--border-color);&quot;&gt;&lt;br style=&quot;border-color: var(--border-color);&quot;&gt;Empty list&lt;br style=&quot;border-color: var(--border-color);&quot;&gt;Empty dict as Simple metric&lt;br style=&quot;border-color: var(--border-color);&quot;&gt;Str about no EOG contamination detected" style="html=1;dashed=0;fontFamily=Helvetica;fontSize=12;fontColor=rgb(0, 0, 0);align=center;strokeColor=rgb(0, 0, 0);fillColor=rgb(255, 255, 255);" parent="1" vertex="1">
          <mxGeometry x="-200" y="-2411" width="230" height="81" as="geometry" />
        </mxCell>
        <mxCell id="vJdWvzgEycFzp4JEzYMt-20" style="edgeStyle=orthogonalEdgeStyle;rounded=0;orthogonalLoop=1;jettySize=auto;html=1;exitX=0.25;exitY=1;exitDx=0;exitDy=0;entryX=0.25;entryY=0;entryDx=0;entryDy=0;" parent="1" source="ua0UwOFp4txvmiH0tm5q-10" target="q_XP9tdPbFsaZTS1878Z-46" edge="1">
          <mxGeometry relative="1" as="geometry">
            <Array as="points">
              <mxPoint x="-655" y="-2120" />
              <mxPoint x="-1045" y="-2120" />
            </Array>
          </mxGeometry>
        </mxCell>
      </root>
    </mxGraphModel>
  </diagram>
</mxfile>
